<svg width="30" height="31" viewBox="0 0 30 31" fill="none" xmlns="http://www.w3.org/2000/svg">
<path d="M6.5625 14.5625H25.3125C25.5611 14.5625 25.7996 14.6613 25.9754 14.8371C26.1512 15.0129 26.25 15.2514 26.25 15.5C26.25 15.7486 26.1512 15.9871 25.9754 16.1629C25.7996 16.3387 25.5611 16.4375 25.3125 16.4375H6.5625C6.31386 16.4375 6.0754 16.3387 5.89959 16.1629C5.72377 15.9871 5.625 15.7486 5.625 15.5C5.625 15.2514 5.72377 15.0129 5.89959 14.8371C6.0754 14.6613 6.31386 14.5625 6.5625 14.5625Z" fill="black"/>
<path d="M6.95062 15.5L14.7262 23.2738C14.9023 23.4498 15.0012 23.6886 15.0012 23.9375C15.0012 24.1865 14.9023 24.4252 14.7262 24.6013C14.5502 24.7773 14.3115 24.8762 14.0625 24.8762C13.8135 24.8762 13.5748 24.7773 13.3987 24.6013L4.96125 16.1638C4.87394 16.0767 4.80467 15.9732 4.75741 15.8593C4.71015 15.7454 4.68582 15.6233 4.68582 15.5C4.68582 15.3767 4.71015 15.2546 4.75741 15.1407C4.80467 15.0268 4.87394 14.9234 4.96125 14.8363L13.3987 6.39877C13.5748 6.22274 13.8135 6.12384 14.0625 6.12384C14.3115 6.12384 14.5502 6.22274 14.7262 6.39877C14.9023 6.57481 15.0012 6.81357 15.0012 7.06252C15.0012 7.31148 14.9023 7.55024 14.7262 7.72627L6.95062 15.5Z" fill="black"/>
</svg>
